<svg id="Capa_1" enable-background="new 0 0 512.039 512.039" height="512" viewBox="0 0 512.039 512.039" width="512" xmlns="http://www.w3.org/2000/svg"><path d="m480.279 503.59c16.368-33.548 31.76-85.758 31.76-128.576 0-8.284-6.716-15-15-15h-167.241v-90h165c3.979 0 7.794-1.581 10.606-4.394 2.813-2.813 4.394-6.628 4.394-10.606-.002-160.578-147.675-284.936-312.695-248.655-80.11 17.613-147.741 74.479-178.109 149.675-17.318 42.885-22.831 87.845-16.386 133.633 5.642 40.07 20.393 78.696 42.659 111.702 33.222 49.246 77.906 78.646 119.53 78.646 52.805 0 96.623-39.184 103.924-90h31.076v47c0 41.355 33.645 75 75 75h91.928c.02 0 .041.003.061.003 5.708 0 10.978-3.274 13.493-8.428zm-150.481-113.576h151.594c-.906 10.901-2.702 21.721-4.97 32h-146.624zm-120-30v-45c0-52.805 39.183-96.631 90-103.932v30.441c-34.192 6.968-60 37.271-60 73.491v45zm60-45c0-19.555 12.541-36.228 30-42.42v87.42h-30zm60-75v-30h145.496c1.991 9.835 3.344 19.851 4.011 30zm-165 210c-31.164 0-67.437-25.069-94.661-65.424-43.513-64.499-52.233-145.74-23.324-217.322 31.487-77.971 110.741-137.161 207.504-137.161 51.396 0 101.076 17.071 141.354 49.456 33.21 26.702 57.606 61.5 71.336 100.451h-152.21c-74.439 0-135 60.561-135 135v17.581c-4.695-1.666-9.743-2.581-15.002-2.581-24.813 0-45.001 20.187-45.001 45s20.188 45 45.001 45c19.555 0 36.228-12.542 42.42-30h31.073c-6.968 34.192-37.27 60-73.49 60zm14.998-75c0 8.271-6.729 15-15 15s-15.001-6.729-15.001-15 6.729-15 15.001-15 15 6.729 15 15zm152.582 77h135.853c-4.109 12.721-8.277 23.212-11.159 30h-82.274c-19.555 0-36.228-12.541-42.42-30z"/></svg>