<svg id="Layer_1" data-name="Layer 1" xmlns="http://www.w3.org/2000/svg" viewBox="0 0 295.13 251.06"><defs><style>.cls-1{fill:#575756;}</style></defs><path class="cls-1" d="M49.56,111c-.72-4.19-1.63-8.36-2.09-12.57a10.45,10.45,0,0,0-4.42-7.87c-1.74-1.24-1.88-2.59-.72-4.31A32.15,32.15,0,0,0,44,83l8.83,7.93.33-.23L46.21,79.55a4.48,4.48,0,0,1,4.24-1.46,3.72,3.72,0,0,0,2.89-1C57.67,71.64,64,71,70.06,70.26c9.25-1.13,18.19.77,26.87,3.92a9.44,9.44,0,0,0,6.25.06c2.64-.8,5.35-1.39,8.07-2.08-1-2.45-4.5-3.59-3.16-7l6.2,5L116.94,72a12.48,12.48,0,0,0,1.58,8.87c-.16-2.45-.33-4.89-.5-7.46,3.56,5.19,6.87,10.06,10.25,14.9a7.93,7.93,0,0,0,2.19,2.31,15.42,15.42,0,0,1,6.29,8.11,3.35,3.35,0,0,0,3.12,2.42c2.26.26,4.48,1,6.74,1.14,1.66.1,3.35-.65,5-.64,3.94,0,6.24-1.8,7.5-5.53a8.6,8.6,0,0,1,3.1-3.9c4.19-2.94,6.39-7.44,9.31-11.37,1.68-2.27,3-4.8,5-7.28-.16,2.42-.33,4.84-.49,7.26l.56.13c.35-1.65.77-3.28,1-4.93.19-1.31.16-2.65.22-4l8.42-6.58c1.14,1.82.92,2.34-3.21,6.69,2.86.7,5.57,1.2,8.16,2a11.05,11.05,0,0,0,7.71-.18c.86-.33,1.81-.44,2.67-.79,7-2.78,14.24-3.17,21.66-3,5,.07,9.54,1.75,14.13,3.18,1.65.52,2.75,2.61,4.26,3.77a7.65,7.65,0,0,0,2.94,1.09c1.36.31,2.77.44,4.66.72l-7.38,11.77.3.29,8.7-7.79c.2.13.28.15.31.21,3,5,3,5-1.14,9.13a7.13,7.13,0,0,0-1.89,3.38c-1,5-1.82,10.07-2.7,15.12l.52.21,10.15-16.3,4.29,1.9c-3,6.85-6,13.6-9.08,20.78l9.25-9.28a22,22,0,0,1,0,2.39c-.39,2.76-.84,5.51-1.21,8.27-.17,1.27-1.2,2.88,1.16,3.35.17,0,.3.75.3,1.15,0,1.79,0,3.59-.22,5.36a5.11,5.11,0,0,1-1,1.94,2.4,2.4,0,0,1-.84.66c-3,1.62-4.53,3.76-2.71,7.19a4.45,4.45,0,0,1,.13,1.23c-1.9-1-3.6-1.78-5.21-2.72a4.88,4.88,0,0,0-4.25-.61,34.38,34.38,0,0,1-6,1.38,7.63,7.63,0,0,0-5.75,3.85c-2.48,3.75-5.19,7.34-7.66,10.79,3.51,7.79,11.33,9.52,17.74,13.64.62-1.07,1.17-1.89,1.59-2.77,1.18-2.45,2.66-4.49,5.5-5.27a2.07,2.07,0,0,0,.86-1.87,29.43,29.43,0,0,0-3.08-5.07,4.4,4.4,0,0,1-.89-4c.43-2.08.71-4.19,1.11-6.63,3.31,2.53,6.38,4.85,9.42,7.19,4.92,3.79,9.86,7.57,14.72,11.45a4.8,4.8,0,0,1,1.47,2.43c.7,2.69,1.11,5.47,1.85,8.15a3,3,0,0,0,1.81,1.88c4.28.81,6.58,4,8.89,7.17a53.31,53.31,0,0,1,3.25,5.93l-7.76-3.1c1.18,2.36,1.49,4.69,4,5.24s2.64,2.93,3.82,4.73l3.36-1.41c-.35,4.19,1.53,8.49-1.63,11.83-1.75,1.85-4.54,4-6.73,3.89-6.19-.39-12.06.81-18,1.85-7.39,1.29-14.79,1-22.22.26-13.94-1.33-27.89-2.52-41.84-3.75-.62-.06-1.26,0-2.19,0,.3,1.52.48,2.91.86,4.25a3.45,3.45,0,0,1-1.11,3.78c-3.22,3.22-6.26,6.63-9.18,9.75l10.11-4.86-13.65,14.2.3.46L206.25,224c-2.78,5-5.25,9.44-7.71,13.88l.35.31,6.62-4.82.26.17-3.55,6c.26.23.37.41.46.4,3.44-.33,4.67,1.67,5.26,4.67a65.45,65.45,0,0,0,2,6.46H85.06c1.09-3.43,2.09-6.76,3.25-10,.15-.43,1.14-.65,1.77-.8a28.42,28.42,0,0,1,2.94-.35l-3.83-6.34.2-.24,6.74,4.89.36-.24-7.4-13.33.22-.36,16,7.6L91.19,217.32l.27-.37,11.05,5.33.31-.32-1.8-1.8c-2.65-2.6-5.25-5.26-8-7.77a3.32,3.32,0,0,1-1.17-3.76c.4-1.35.57-2.76.91-4.46-4.63.3-9,.48-13.29.89-12.23,1.14-24.45,2.51-36.7,3.51A67.41,67.41,0,0,1,21.7,207a36.65,36.65,0,0,0-12.31-.83c-4.67.46-9.42-4.18-9.39-8.83,0-2.25,0-4.5,0-7.07l3.41,1.44a10.39,10.39,0,0,0,.86-1.61c.57-1.67,1.76-2.46,3.28-3.32s2.61-2.7,3.88-4.11l-.56-.72c-2.24.89-4.48,1.79-7,2.78a26.84,26.84,0,0,1,8.85-12.09,2.15,2.15,0,0,1,1.2-.36c2.62-.17,3.94-1.51,4-4.16.26-5.87,3.24-9.84,8.11-13.08C32,151.07,37.35,146.44,43,142.12c.56-.43,1.13-.83,2-1.5.46,3,.93,5.68,1.26,8.39a2.63,2.63,0,0,1-.64,1.52c-.77,1.12-1.61,2.19-2.42,3.28-2.07,2.78-1.8,3.63,1.19,5.06a8.14,8.14,0,0,1,2.78,2.41,54.27,54.27,0,0,1,2.9,4.84c6.33-4,14.1-5.76,17.76-13.61l-9.7-13.4c-4.13-1-8.24-2.42-12.4-2.62-2.14-.1-4.39,2.09-6.84,3.37a5.34,5.34,0,0,1,.19-1.55c1.61-3.05.39-5-2.31-6.61-.92-.54-2.09-1.46-2.24-2.36a30.38,30.38,0,0,1-.21-6.61c0-.41,1-.78,1.73-1.28l-1.79-12.3,8.6,8.58.67-.56L34.65,96.85l4.26-2L49,111.12Zm170.75,46.36a58.8,58.8,0,0,0-5.24,3.32,3.52,3.52,0,0,0-1.37,2.51,31.46,31.46,0,0,1-2.86,15.38c-2.09,4.71-.5,3.71-5.69,3.92a6.68,6.68,0,0,1-6.43-4.34A70.83,70.83,0,0,0,189.25,160a19,19,0,0,0-7.29-6.24c-6-3.07-12.58-5.25-17.13-10.67a2.49,2.49,0,0,0-1.13-.58c-7.8-2.47-15.63-4.6-23.9-2.3-1.23.34-2.53.48-3.78.77-3,.7-6,1.46-7.89,4.24a6.14,6.14,0,0,1-2.19,1.68c-5.16,2.77-10.35,5.46-15.51,8.23a7,7,0,0,0-2.5,1.89c-4.39,6.33-9.18,12.45-11.19,20.09a6.35,6.35,0,0,1-4.21,4.73c-1.63.53-3.47.39-5.21.61C86,182.6,85.48,182,85,180.8c-2.33-5.71-4.55-11.42-3.65-17.79a1.21,1.21,0,0,0,0-.63c-.17-.44-.3-1-.65-1.24-1.88-1.27-3.83-2.45-6-3.82-1.22,2.93-2.22,5.68-3.51,8.29a10.77,10.77,0,0,1-2.8,3.58c-3.45,2.74-7.06,5.28-10.61,7.9,5.38,5.45,12.78,4.77,19.15,7-3.1.35-6.18.45-9.22.83a12.77,12.77,0,0,1-6.84-1.11C50,179.09,39,174.5,28.12,169.89c-3.52-1.48-6.08-.62-8.2,2.85l5.35,2L18,181c1.85.17,3,.34,4.09.38a23.19,23.19,0,0,1,11.18,3.13c4.27,2.45,8.77,4.49,13.2,6.65.58.28,1.55.55,2,.27,2.81-1.91,5.83-1.43,8.9-1.13,8.11.79,16.19,1.66,24,4.31,3.72,1.27,7.51,2.31,11.32,3.27a6.32,6.32,0,0,0,3.44-.23c1-.32,1.7-1.21,3-2.17-2.17-4.62,2.22-7.13,4.76-10.44a5.64,5.64,0,0,1,1-1.15,2.93,2.93,0,0,1,1.43-.73c6.89-.3,13.44.74,19.28,4.78,2.6,1.8,3.84,1.3,5-1.56-4.28-3.48-9.51-4.77-14.68-5.39-4.57-.55-9-2.76-13.8-1.35-.07,0-.19-.16-.76-.69,1.09-.92,2-2.35,3.17-2.58,5.57-1.1,11-3.05,16.77-3.19,2.22,0,4.29-.28,6.45.59a10.84,10.84,0,0,0,4.12.45c1.91,0,1.58-1.6,1.71-2.84.17-1.56-1-1.47-1.95-1.62-1.7-.26-3.4-.47-5.1-.69-4.86-.6-9.6-.68-14.33,1.17-2.72,1.06-5.76,1.31-8.86,2,.53-2.69.57-2.68,2.34-3.46,2.35-1,4.67-2.14,7-3.21a5.66,5.66,0,0,1,2.16-.85c5.87.24,11.81-1.72,17.62.34a3.84,3.84,0,0,0,4.69-1.48,12.2,12.2,0,0,0,1.23-2.66,8.22,8.22,0,0,0-2.71-1.08c-4.63-.06-9.27.27-13.89.06a15.14,15.14,0,0,0-9.38,2.17,11.42,11.42,0,0,1-3.22.89l-.31-.59a6.92,6.92,0,0,1,1.23-1.61c3-2.15,5.42-5.6,9.85-5.06a1.13,1.13,0,0,0,.61-.17,8.13,8.13,0,0,1,7.53-.18,4.38,4.38,0,0,0,6.15-3.6l-4.54-1.27a59.24,59.24,0,0,1,35.79-.06l-4.6,1.34c.43,2.6,2.57,4.6,5.12,3.66,3.76-1.39,7-.61,10.45.48.66.21,1.44,0,2.12.19a5,5,0,0,1,1.88.8c1.4,1.09,2.75,2.26,4.07,3.46.68.62,1.25,1.37,1.88,2.06l-.41.63a10.74,10.74,0,0,1-3.13-.91,14.48,14.48,0,0,0-9.79-2.22c-1.48.13-3-.14-4.49-.14-3.42,0-6.85-.09-10.26.11a2.53,2.53,0,0,0-1.55,1.93c.17,1.79,3.42,3.64,5.26,3.32,2.66-.45,5.38-1.35,8-1.14,6.19.47,12.58.45,18,4.22.4.28,1,.29,1.37.59,1,.75,1.85,1.59,2.76,2.4l-.47.87c-2.44-.39-4.89-.65-7.29-1.2s-4.77-2-7.16-2c-4.69,0-9.39.57-14.08,1a2,2,0,0,0-1.46.89,2.42,2.42,0,0,0,2,3.57,10.16,10.16,0,0,0,3.31-.35c1.45-.3,3-1.28,4.28-1,5.17.91,10.57.62,15.54,2.73a7,7,0,0,0,2.72.52c2.38,0,3.39,1.33,3.81,3.64-1.22-.14-2.34-.34-3.46-.38a16.7,16.7,0,0,0-3.32.2c-1.39.24-2.73.72-4.11,1-3.7.72-7.49,1.12-11.11,2.15-2.46.7-4.68,2.26-7,3.43,1.58,3,2.63,3.35,5.16,1.8a29.61,29.61,0,0,1,14.79-4.79c4-.14,6.54.83,9,4,2,2.62,3.87,4.85,2.68,8.32-.08.23.06.53.1.88l1.91-.16c1.37,2.07,2,2.37,4.46,1.71,3.52-1,7-2.05,10.51-3,4.06-1.12,8.08-2.45,12.21-3.18,4.78-.83,9.66-1,14.48-1.65a10.29,10.29,0,0,1,6.2.95,3.75,3.75,0,0,0,2.92,0c5.41-2.6,10.72-5.4,16.12-8a14.83,14.83,0,0,1,4.25-1.23c2.43-.38,4.89-.53,7.92-.83l-7.21-6.2,5.43-2.09c-2.69-3.6-4.8-4.25-8.61-2.64-11.26,4.73-22.5,9.51-33.76,14.24A7.11,7.11,0,0,1,230,185c-4-.2-8.08-.56-12.75-.9,7.09-2.19,14.55-1.59,20-7-3.6-2.66-7.17-5.15-10.56-7.87a11.52,11.52,0,0,1-2.92-3.75C222.48,162.93,221.51,160.24,220.31,157.34ZM69.43,87.23l-.54.16c0,5.2.06,10.4,0,15.6a2.26,2.26,0,0,0,1.87,2.57c9.23,3,18.42,6.16,27.63,9.25a3.55,3.55,0,0,0,1.85.37c3.32-1,6.6-2.18,10.05-3.34-1.45-4.12-2.77-8-4.24-11.89a2.46,2.46,0,0,0-1.76-1.06c-4.12-.46-8.25-1-12.38-1.1a11.6,11.6,0,0,1-7.69-3.11c-2.24-1.93-4.67-3.63-7.47-5.77v8.35l-.48.14Zm148,1.73c-3.24,2.49-6,4.78-8.91,6.76a11.64,11.64,0,0,1-4.81,1.84c-4.6.6-9.25.87-13.87,1.33-.55.06-1.38.38-1.53.79-1.5,4-2.88,8-4.33,12.15,3.38,1.16,6.47,2.26,9.59,3.25a3.69,3.69,0,0,0,2.06-.19c9.35-3.12,18.68-6.29,28-9.39a2,2,0,0,0,1.69-2.26c-.06-4.93,0-9.86,0-14.8a12.19,12.19,0,0,0-.27-1.59l-7.21,10.76-.41-.21ZM170.08,204.44a80,80,0,0,0-45.16,0c1.38,2.4,2.7,4.58,3.9,6.82a2,2,0,0,0,2.59,1.14A102.6,102.6,0,0,1,142,211a73.05,73.05,0,0,1,21.72,1.41,2.3,2.3,0,0,0,2-.53C167.22,209.53,168.55,207.09,170.08,204.44Zm-53.93-119c1,4.07,1.87,8.16,3,12.19a4.15,4.15,0,0,0,2,2.36c4.31,1.91,8.59,4,13.1,5.3,5.58,1.58,11.25,2.9,17.27,2,5.71-.88,11-3,16.37-4.75,5.67-1.88,8.61-5.11,9.11-10.92.18-2.08.75-4.12,1.19-6.43-2.77,1.27-2.79,1.33-3.26,3.41a5.35,5.35,0,0,1-.66,1.54,11.91,11.91,0,0,1-7.16,5.69c-2,.54-3.83,1.57-5.8,2.22-1.82.59-2.45,1.86-2.72,3.87,3-1.19,5.65-2.37,8.4-3.32,3.16-1.09,6.16-2.29,7.48-5.73,0-.05.23,0,.81-.11-.77,2-1,4.8-2.24,5.43A88.2,88.2,0,0,1,158,104.1a38.88,38.88,0,0,1-11.86,1.41,53.81,53.81,0,0,1-22.15-6c-3.41-1.69-4.3-2.81-4.13-6.78,1,1.34,1.69,3.2,3,3.82,4.15,2,8.52,3.52,12.81,5.23l.5-.65a13,13,0,0,0-2.7-2.42,75.8,75.8,0,0,0-7.94-3.22c-3.28-1.12-4.72-3.93-5.77-6.7A4.6,4.6,0,0,0,116.15,85.46Zm26.52,79.07c1.31,1,4.14-.43,4,3.09-.13,3-3,2-4,3.62l4,.77c-.21,1.24-.06,2.67-.7,3.42s-2.14,1-3.38,1.49c1.37,1.09,3.42-.15,3.93,2,.77,3.27-2.43,2.74-3.91,3.92,3.83,1.4,3.77,1.42,3.92,2,.91,3.32-2.47,2.72-3.71,3.87,1.28.61,3.19.9,3.55,1.8,1.31,3.24-2.24,3-4.05,4.34l3.59.69,1.41,2.19,1.84-2.23,3.06-.6a3.72,3.72,0,0,0-2.06-1.15c-1.72-.28-1.77-1.42-1.79-2.82,0-1.61,1.14-1.33,2-1.55.57-.13,1.13-.28,2.18-.54l-4.11-1.67v-3.24l4.07-1c-4.41-2-4.41-2-3.9-5l3.38-.7c-2.15-1.16-4.8-1.78-3.34-5.23l4-.88c-1.69-.69-3.31-.85-3.9-1.72s-.35-2.54-.47-3.93l4.54-1a14.29,14.29,0,0,1-3.26-1.29,3.2,3.2,0,0,1-1.11-2.09c0-.37.92-.94,1.52-1.19a12.59,12.59,0,0,1,2.41-.51c-1.63-1.41-5.11-.73-3.79-4.35l3.36-.72c-1.35-1-2.62-2-3.94-2.89a1.11,1.11,0,0,0-1-.1c-1.41.94-2.77,2-3.84,2.73,1,.58,2.9,1.06,3.15,2,.76,2.84-2.58,1.82-3.58,3.14.86,1.4,3.81-.52,3.73,2.37C146.45,164.1,143.77,163.05,142.67,164.53Zm61.78-38.11c-2.58-5.69-6.68-8.51-12.86-8.83Zm-114,.1,13.14-9C96.91,118.2,93.61,120.46,90.41,126.52Zm63,2.42c-2-1.38-3.83-2.59-5.62-3.77a.69.69,0,0,0-.6-.07c-1.8,1.14-3.58,2.3-5.37,3.46l.29.38Z"/><path class="cls-1" d="M188.07,45.71c-3.53-.16-6.62-.4-9.71-.42-9.15,0-18.29,0-27.48-.27.84-.21,1.7-.4,2.53-.64,6.13-1.72,11.39-4.57,13.05-11.31S165.62,20.9,161,16.34c-5.66-5.63-12.48-7.9-20.19-4.83s-12.53,9-13.23,17.43c-.49,5.94,2.53,10.34,7.64,13.09a63.18,63.18,0,0,0,8.12,3.14H109.94c1.46-2,2.63-3.74,3.93-5.38a10.7,10.7,0,0,0,2.57-6.18,53.94,53.94,0,0,1,1.24-9.33c.74-2.93,2.12-5.7,2.89-8.89-.29.42-.56.85-.87,1.25-6,8-9.82,16.91-10,27.07,0,2.14-1.45,2.06-3.25,2.66A38.06,38.06,0,0,1,106.2,41c.18-2.2.89-4.35,1.07-6.55.42-5.05,3.5-9,5.27-13.46,2-5.07,6-8.33,9.7-12,3.91-3.86,8.15-6.45,13.68-7,3.4-.36,6.73-1.3,10.1-1.9a7.88,7.88,0,0,1,2.74,0c5.33,1,10.65,2.08,16,3.22a6,6,0,0,1,2.6,1.32c3.6,3.14,7.15,6.35,10.68,9.59a8.26,8.26,0,0,1,1.64,2.2c1.65,3.16,3.05,6.47,4.86,9.54,3,5.06,3,10.81,4.06,16.3C188.8,43.48,188.22,44.81,188.07,45.71ZM173.74,15.83a2.56,2.56,0,0,0,.15.76c3.09,4.95,3.69,10.56,4.14,16.17a12.84,12.84,0,0,0,3.11,7.52c1.18,1.4,2.2,2.95,3.29,4.44C184.73,33.52,180.73,24.12,173.74,15.83Z"/><path class="cls-1" d="M112.82,54.84h68.81c-.55,1.14-1,2.09-1.46,3C177.8,62.58,175.48,67.33,173,72a3.4,3.4,0,0,1-2.16,1.64c-7.78,1-15.59,2.6-23.38,2.58-8.08,0-16.16-1.64-24.24-2.62a2.2,2.2,0,0,1-1.44-1C118.83,66.81,115.93,61,112.82,54.84Zm20.47,1.91a47.49,47.49,0,0,0,27.86,0Z"/><path class="cls-1" d="M108.3,54.8l-2.93,1.81c-2.32-5.13-1-8.52,3.63-9.79.5-.14,1.15.28,1.72.46a7.37,7.37,0,0,0,1.9.61q34.62,0,69.26,0c.7,0,1.46-1,2.09-.86,1.53.25,3.3.48,4.43,1.39,2.77,2.22,2.55,5.1.71,8.14l-2.88-1.73c.38-.84,1.09-1.73.88-2.13a2.69,2.69,0,0,0-2-1.23q-37.84-.09-75.69,0a3,3,0,0,0-2,1.22C107.21,52.93,107.88,53.85,108.3,54.8Z"/><path class="cls-1" d="M146.19,92.1l-8.06-1.2c-.26,1.52.28,2.24,1.69,2.4,1.56.18,3.11.44,4.67.58,1.23.12,1.76.66,1.66,1.93s0,2.51,0,4c-2.34-.53-4.36-.92-6.33-1.49-.48-.14-.9-.85-1.14-1.38-.76-1.69-1.42-3.43-2.14-5.14-.22-.52-.39-1.21-.8-1.49-4.36-3-3.44-8.14-5.81-12.56,4,.42,7.49.72,10.92,1.15,5.31.68,5.31.72,5.36,6.08C146.21,87.3,146.19,89.56,146.19,92.1Z"/><path class="cls-1" d="M148.74,99.79V94.23c1.8-.24,3.73-.6,5.68-.72,1.57-.1,2.12-.82,2.07-2.51l-8,1.13c0-4,0-7.81,0-11.63a1.53,1.53,0,0,1,1-1c4.8-.59,9.6-1.1,14.84-1.68-1.14,3.71-2.14,7-3.16,10.33a1,1,0,0,1-.34.53c-3,1.59-3.49,4.73-4.56,7.45A3.8,3.8,0,0,1,153,98.89C151.67,99.07,150.36,99.44,148.74,99.79Z"/><path class="cls-1" d="M183.64,64.9l-5.54,4-.32-.21c2-4.33,4.07-8.66,6.17-13.15l5.57,3c-.57,2.06-1.13,4.08-1.71,6.22-2-.56-3.94-.79-3.51-3.57l-.71.06-.52,3.32Z"/><path class="cls-1" d="M116.48,68.89l-5.12-3.66-.3-4-.71-.16c.3,2.6-1.4,3.18-3.58,3.68-.54-1.84-1.12-3.7-1.6-5.58a1.25,1.25,0,0,1,.55-1c1.52-.89,3.09-1.71,4.74-2.61.34.61.64,1.08.88,1.58q2.72,5.75,5.42,11.5Z"/><path class="cls-1" d="M130.19,86.82l-7-9.49c4.4.09,4.41.09,5.6,3.72.62,1.86,1.19,3.74,1.79,5.61Z"/><path class="cls-1" d="M171.24,77.49l-6.91,9.35-.33-.15c.84-2.66,1.37-5.51,2.68-7.92.59-1.08,2.76-1.31,4.21-1.92Z"/></svg>